<?xml version="1.0" encoding="UTF-8" standalone="no"?>
<!-- Created with Inkscape (http://www.inkscape.org/) -->

<svg
   width="29.461586mm"
   height="9.4530535mm"
   viewBox="0 0 29.461586 9.4530534"
   version="1.1"
   id="svg3125"
   xml:space="preserve"
   inkscape:version="1.2.2 (b0a8486541, 2022-12-01)"
   sodipodi:docname="nbi_digitize_landscape.svg"
   inkscape:export-filename="nbi_digitize_landscape.png"
   inkscape:export-xdpi="120"
   inkscape:export-ydpi="120"
   xmlns:inkscape="http://www.inkscape.org/namespaces/inkscape"
   xmlns:sodipodi="http://sodipodi.sourceforge.net/DTD/sodipodi-0.dtd"
   xmlns="http://www.w3.org/2000/svg"
   xmlns:svg="http://www.w3.org/2000/svg"><sodipodi:namedview
     id="namedview3127"
     pagecolor="#ffffff"
     bordercolor="#666666"
     borderopacity="1.0"
     inkscape:showpageshadow="2"
     inkscape:pageopacity="0.0"
     inkscape:pagecheckerboard="0"
     inkscape:deskcolor="#d1d1d1"
     inkscape:document-units="mm"
     showgrid="false"
     inkscape:zoom="2.3786088"
     inkscape:cx="2.312276"
     inkscape:cy="46.455727"
     inkscape:window-width="1920"
     inkscape:window-height="1131"
     inkscape:window-x="0"
     inkscape:window-y="0"
     inkscape:window-maximized="1"
     inkscape:current-layer="layer1"
     showguides="false" /><defs
     id="defs3122"><rect
       x="310.30975"
       y="638.6825"
       width="292.73117"
       height="103.86849"
       id="rect4142" /><rect
       x="377.91977"
       y="617.99628"
       width="363.10699"
       height="57.345516"
       id="rect4029" /><rect
       x="310.30975"
       y="638.6825"
       width="292.73117"
       height="103.86849"
       id="rect4142-3" /></defs><g
     inkscape:label="Layer 1"
     inkscape:groupmode="layer"
     id="layer1"
     transform="translate(-124.10136,-138.73694)"><g
       id="g2393"
       transform="matrix(0.47397155,0,0,0.47397155,66.6821,74.377768)"
       style="stroke-width:2.10983"><path
         style="fill:#bcd42f;stroke-width:2.10983"
         d="m 121.145,145.6756 1.7e-4,-9.8886 12.0225,1e-5 v 9.94464 9.99067 h -6.01133 -6.01134 z"
         id="path3894"
         sodipodi:nodetypes="cccccccc" /><path
         style="fill:#2779b8;stroke-width:2.10983"
         d="M 121.145,145.73163 V 135.787 h 7.78934 v 0.14679 c 0,0.45638 -0.5373,0.84143 -1.74269,1.24888 -1.96768,0.66512 -1.76122,1.66434 0.5239,2.53547 2.05682,0.7841 2.42867,1.88587 0.94305,2.79419 -2.36058,1.44328 -2.22166,2.38099 0.50701,3.42229 2.14553,0.81877 2.14427,1.65654 -0.004,2.71687 -1.17342,0.57916 -1.41256,0.82464 -1.41256,1.45005 0,0.64413 0.32693,0.90323 2.21752,1.75745 2.20887,0.99804 2.5773,1.95469 1.26774,3.29181 l -0.55971,0.5715 h -4.76478 -4.76477 z"
         id="path3892"
         sodipodi:nodetypes="cccssssssssscccc" /><path
         style="fill:#39b24b;stroke-width:2.10983"
         d="M 121.145,145.73163 V 135.787 c 2.39544,0.0388 4.10793,0.0362 7.19667,0 0,0.42695 -0.8782,1.03406 -2.01639,1.39335 -1.60742,0.50742 -1.49765,1.75287 0.23365,2.6512 2.11134,1.09553 1.75676,2.26675 -0.95196,3.14453 -2.08689,0.67627 -2.27408,1.77475 -0.46126,2.70675 1.74472,0.89699 1.89555,1.06529 1.59113,1.77547 -0.18276,0.42638 -0.45209,0.62786 -1.48021,1.10734 -0.35216,0.16424 -0.92904,0.43328 -1.28196,0.59787 -1.54174,0.719 -1.54848,1.37482 -0.0279,2.70908 1.34081,1.17649 1.63402,1.76923 1.25871,2.54453 -0.36153,0.43592 -0.87375,1.05441 -1.35118,1.22045 -0.95479,0.1347 -1.64057,0.0847 -2.70934,0.0847 z"
         id="path3890"
         sodipodi:nodetypes="cccsssssssscccc" /></g><g
       id="g2400"
       transform="translate(0,-0.32639552)"><text
         xml:space="preserve"
         transform="matrix(0.26091821,0,0,0.3035699,23.180683,-53.073278)"
         id="text4140"
         style="font-size:10px;line-height:1.25;font-family:sans-serif;text-align:center;letter-spacing:0px;word-spacing:0px;white-space:pre;shape-inside:url(#rect4142);display:inline;fill:#2779b8;fill-opacity:1;stroke-width:0.940113"><tspan
           x="413.21576"
           y="648.39164"
           id="tspan2446"><tspan
             style="font-weight:bold;font-family:'Novecento Cond Bold';-inkscape-font-specification:'Novecento Cond Bold,  Bold'"
             id="tspan2444">NILE BASIN INITIATIVE</tspan></tspan></text><text
         xml:space="preserve"
         transform="matrix(0.22529058,0,0,0.19917716,39.420015,16.816665)"
         id="text4140-6"
         style="font-style:normal;font-variant:normal;font-weight:normal;font-stretch:normal;font-size:10px;line-height:1.25;font-family:'Novecento Cond Normal';-inkscape-font-specification:'Novecento Cond Normal, ';text-align:center;letter-spacing:0px;word-spacing:0.943405px;white-space:pre;shape-inside:url(#rect4142-3);display:inline;fill:#2779b8;fill-opacity:1;stroke-width:1.24902"><tspan
           x="406.50394"
           y="648.39164"
           id="tspan2450"><tspan
             dx="0 0 0 0 0 0 0 0 0 0 -0.94340497 0.94340515 0 -0.94340497 0.94340515 0 0 0 0 0 -0.94340116 0.94340134 0 -0.94340879 0.94340897"
             id="tspan2448">INITIATIVE DU BASSIN DU NIL</tspan></tspan></text></g></g></svg>
